<?xml version="1.0" standalone="no"?>
<!DOCTYPE svg PUBLIC "-//W3C//DTD SVG 20010904//EN"
 "http://www.w3.org/TR/2001/REC-SVG-20010904/DTD/svg10.dtd">
<svg version="1.0" xmlns="http://www.w3.org/2000/svg"
 width="5210.000000pt" height="4168.000000pt" viewBox="0 0 5210.000000 4168.000000"
 preserveAspectRatio="xMidYMid meet">

<g transform="translate(0.000000,4168.000000) scale(0.100000,-0.100000)"
fill="#000000" stroke="none">
<path d="M25229 40246 c-2 -2 -72 -6 -155 -10 -82 -4 -161 -8 -175 -10 -13 -3
-55 -7 -94 -11 -369 -33 -825 -131 -1195 -255 -1264 -423 -2247 -1292 -2720
-2405 -47 -111 -160 -440 -160 -467 0 -10 -4 -18 -8 -18 -5 0 -63 20 -130 44
-492 179 -1058 304 -1632 362 -221 22 -829 30 -1072 15 -1408 -91 -2755 -579
-3833 -1389 -986 -742 -1756 -1789 -2209 -3004 -675 -1812 -574 -3864 273
-5558 l98 -195 -41 -32 c-325 -250 -672 -603 -936 -953 -561 -743 -906 -1613
-1005 -2530 -124 -1153 222 -2460 909 -3430 571 -808 1328 -1368 2121 -1570
274 -70 400 -85 725 -85 219 0 311 4 397 17 231 35 481 101 676 179 55 22 104
36 108 32 4 -5 23 -44 42 -88 19 -44 96 -213 172 -375 313 -672 515 -1158 649
-1567 30 -90 44 -118 71 -141 18 -17 38 -31 44 -33 6 -2 24 -46 40 -97 l29
-94 -30 -16 c-513 -280 -811 -730 -915 -1377 -28 -173 -25 -611 5 -804 78
-495 270 -954 559 -1334 91 -120 312 -345 433 -441 112 -88 279 -200 412 -273
l107 -59 -177 -69 c-721 -277 -1502 -670 -2177 -1095 -389 -244 -517 -327
-566 -365 -75 -58 -133 -141 -154 -220 -34 -125 4 -230 181 -496 511 -770
1203 -1541 1909 -2125 302 -250 566 -446 680 -506 107 -55 172 -71 279 -66
208 9 320 113 631 583 519 785 917 1612 1216 2523 l43 132 51 0 c76 1 128 30
232 133 l94 92 19 -26 c25 -33 308 -295 431 -397 574 -480 1367 -929 2234
-1264 320 -124 882 -304 1212 -388 40 -10 44 -14 101 -123 33 -61 70 -131 83
-154 19 -33 22 -46 14 -69 -9 -24 -21 -30 -95 -50 -204 -54 -406 -141 -558
-240 -366 -238 -623 -623 -724 -1085 -19 -91 -22 -133 -22 -329 0 -197 3 -238
22 -330 33 -152 74 -268 146 -415 130 -264 316 -482 557 -651 l76 -53 -44
-258 c-79 -472 -132 -866 -123 -909 24 -107 184 -136 278 -50 44 39 53 77 88
335 37 271 104 714 109 719 2 2 16 -3 32 -11 90 -45 336 -111 518 -138 588
-87 1217 25 2140 379 l180 70 37 -19 c67 -34 224 -44 683 -44 428 0 508 4 981
46 l231 20 154 -64 c501 -209 874 -328 1219 -391 382 -69 745 -66 1090 10 326
72 679 242 883 424 32 29 60 51 62 49 9 -10 226 -732 354 -1178 50 -176 65
-208 114 -245 55 -41 189 -14 232 46 38 55 37 86 -5 239 -68 250 -205 713
-306 1034 -137 440 -132 420 -111 453 39 59 137 272 166 360 165 500 92 1049
-200 1489 -99 148 -293 341 -443 442 -117 78 -277 161 -393 205 l-72 27 -26
68 c-25 64 -26 70 -12 98 l16 30 71 -18 c195 -50 534 -72 751 -50 413 43 801
189 1114 421 263 194 440 393 701 785 344 515 512 869 591 1242 23 111 27 154
29 320 l2 192 49 78 c27 43 69 111 93 151 l42 72 178 0 c398 0 758 69 1135
217 1143 450 1867 1452 1867 2583 1 454 -117 851 -350 1180 -82 116 -271 308
-369 374 -72 49 -82 62 -64 81 13 13 110 307 166 501 172 595 274 1177 315
1799 26 399 3 1119 -46 1436 l-6 35 94 28 c119 36 224 84 269 124 20 18 46 55
58 83 21 49 24 51 54 45 47 -8 406 -43 602 -58 263 -20 1123 -17 1395 5 541
44 1196 140 1404 207 246 79 356 228 356 486 0 132 -16 221 -102 559 -201 797
-434 1430 -783 2125 -121 239 -190 366 -425 770 -158 272 -250 363 -391 390
-108 21 -208 -17 -454 -170 -831 -516 -1610 -1123 -2260 -1761 -178 -174 -192
-186 -221 -182 -39 6 -152 -11 -263 -39 -57 -14 -86 -18 -89 -10 -2 6 -63 131
-136 279 -319 644 -658 1195 -1088 1771 l-160 213 31 34 c48 55 48 81 1 302
-88 418 -410 2046 -410 2076 0 12 36 15 228 20 246 5 352 20 552 76 823 232
1523 926 1834 1819 162 466 209 960 140 1487 -164 1270 -884 2524 -1880 3276
-465 352 -888 544 -1296 588 -389 43 -892 -56 -1290 -252 l-147 -72 -5 80 c-3
44 -8 143 -11 220 -10 264 -59 617 -126 910 -346 1499 -1258 2791 -2617 3702
-872 585 -1912 996 -2952 1167 -175 29 -443 62 -570 71 -47 4 -105 8 -130 11
-54 6 -606 15 -611 10z m761 -355 c654 -74 1053 -155 1555 -318 879 -285 1661
-717 2355 -1301 178 -150 563 -539 716 -723 556 -672 942 -1428 1148 -2254 50
-199 106 -522 121 -695 4 -41 9 -86 12 -100 4 -14 7 -198 9 -410 2 -212 3
-390 3 -397 1 -22 63 -84 99 -98 68 -29 89 -22 242 81 235 157 514 284 769
349 188 48 275 59 476 59 205 0 301 -15 466 -69 97 -33 344 -154 479 -235 963
-581 1771 -1746 2034 -2932 103 -463 112 -950 24 -1373 -46 -225 -109 -407
-218 -631 -292 -597 -820 -1077 -1388 -1264 -231 -75 -420 -103 -671 -98 -86
1 -162 -1 -168 -5 -7 -5 -13 -6 -13 -4 0 26 -53 254 -64 275 -23 45 -63 66
-131 67 -56 2 -67 6 -150 62 -594 395 -1424 782 -2302 1072 l-232 77 175 88
c294 148 545 328 769 551 198 198 357 410 471 630 52 102 56 113 52 165 -3 38
-12 67 -27 88 -48 68 -163 97 -219 55 -15 -11 -53 -67 -85 -124 -143 -255
-258 -409 -445 -590 -466 -454 -1104 -732 -1892 -824 -295 -35 -782 -30 -1140
11 -1035 117 -1975 540 -2544 1145 -194 205 -393 495 -490 713 -40 89 -103
126 -178 105 -47 -12 -106 -63 -124 -106 -26 -62 -18 -104 45 -230 93 -184
214 -368 375 -568 18 -22 18 -25 1 -76 -36 -111 -139 -359 -209 -504 -343
-711 -878 -1336 -1546 -1802 -802 -560 -1853 -965 -2875 -1107 -539 -75 -1124
-86 -1640 -30 -527 57 -1058 176 -1520 340 -239 85 -218 80 -272 58 -52 -21
-87 -63 -103 -124 -8 -30 -5 -58 14 -141 75 -317 100 -554 100 -934 0 -408
-31 -673 -124 -1050 -203 -824 -623 -1569 -1220 -2165 -528 -526 -1153 -891
-1805 -1054 -448 -111 -851 -98 -1216 39 -119 45 -126 46 -175 36 -118 -27
-186 -169 -118 -250 57 -68 359 -168 629 -207 178 -26 494 -24 685 5 272 41
551 118 779 215 47 20 86 34 88 32 2 -2 -27 -98 -66 -212 -147 -438 -268 -864
-371 -1302 -46 -197 -47 -214 -21 -262 11 -19 24 -44 30 -55 13 -27 91 -269
91 -283 0 -31 -316 -139 -527 -181 -200 -40 -310 -51 -523 -51 -205 0 -319 10
-504 46 -440 86 -852 289 -1281 633 -136 109 -424 391 -537 526 -539 646 -890
1393 -1043 2220 -51 277 -66 447 -70 785 -6 472 26 760 131 1185 126 507 347
1005 647 1455 187 282 361 494 602 736 185 185 288 275 488 429 72 55 139 112
150 127 12 16 22 48 24 80 4 50 0 60 -57 163 -380 676 -658 1529 -750 2300 -6
50 -13 106 -15 125 -69 540 -50 1261 51 1875 319 1935 1402 3518 3079 4500
778 456 1738 774 2640 874 180 20 202 22 315 31 117 9 891 7 945 -3 17 -3 66
-8 110 -12 588 -50 1300 -222 1810 -436 91 -38 146 -42 195 -13 54 31 68 61
114 239 309 1189 1176 2120 2436 2618 476 188 940 293 1525 346 135 13 864 6
995 -8z m231 -10077 c13 -14 64 -58 112 -97 l88 -72 -88 -6 c-196 -15 -233
-16 -233 -8 0 5 14 43 31 86 17 43 35 88 40 101 11 28 20 28 50 -4z m783 -538
c348 -189 868 -368 1346 -465 352 -71 623 -101 991 -108 456 -9 860 32 1208
122 l60 15 188 -54 c1073 -311 2015 -726 2761 -1218 57 -37 110 -68 117 -68 8
0 17 -5 20 -10 6 -10 52 -237 186 -925 77 -397 250 -1268 288 -1450 16 -77 29
-141 28 -142 -1 -1 -92 7 -202 17 -110 10 -236 21 -280 24 -44 4 -98 9 -120
11 -22 2 -92 7 -155 11 -63 3 -128 7 -145 9 -16 2 -106 6 -200 10 -93 4 -181
9 -195 12 -43 9 -1476 11 -1660 3 -366 -17 -810 -46 -1015 -65 -27 -3 -102 -9
-165 -15 -63 -6 -133 -13 -155 -15 -22 -3 -103 -12 -180 -20 -77 -9 -210 -25
-295 -36 -85 -11 -186 -24 -225 -29 -247 -32 -775 -120 -1110 -186 -1615 -318
-3087 -801 -4660 -1529 -251 -116 -726 -356 -995 -503 -310 -168 -431 -237
-640 -360 -1420 -839 -2690 -1812 -3766 -2887 -742 -741 -1296 -1425 -1663
-2053 l-84 -142 -67 177 c-146 387 -280 696 -537 1248 -235 502 -306 681 -413
1032 l-22 72 32 133 c126 522 304 1112 482 1595 l59 161 97 59 c242 145 551
387 786 614 780 753 1312 1816 1451 2897 27 211 35 343 35 589 0 262 -10 423
-40 633 -11 74 -20 140 -20 146 0 8 27 3 78 -13 529 -166 1122 -276 1687 -313
197 -13 689 -13 890 0 1256 82 2524 508 3505 1178 686 469 1197 1026 1580
1722 34 63 63 116 64 116 7 10 608 41 820 42 l169 2 81 -44z m4924 -4628 c440
-651 878 -1480 1192 -2259 45 -112 107 -271 137 -354 l55 -150 -6 -135 c-21
-477 -174 -764 -491 -921 -150 -74 -228 -91 -415 -93 -178 -1 -254 12 -445 75
-512 170 -1047 605 -1525 1239 -196 261 -396 575 -664 1044 -279 487 -328 586
-478 981 -56 146 -148 433 -148 462 0 16 563 86 1015 128 519 47 1060 76 1552
83 l151 2 70 -102z m1002 82 c258 -12 614 -35 840 -55 91 -8 202 -17 247 -21
45 -4 85 -9 90 -13 15 -10 190 -233 315 -401 741 -998 1285 -2075 1602 -3173
71 -246 125 -468 192 -801 6 -28 6 -29 -32 -22 -73 14 -360 114 -499 175 -247
109 -645 332 -890 499 -231 158 -387 285 -569 462 -234 229 -304 321 -708 943
-215 331 -395 639 -479 820 -216 463 -536 1041 -816 1470 -45 70 -83 131 -83
134 0 7 499 -4 790 -17z m-4047 -322 c30 -424 38 -576 48 -870 15 -440 2 -805
-42 -1188 -72 -620 -222 -1059 -484 -1415 -79 -107 -298 -325 -415 -412 -436
-323 -1002 -524 -1695 -602 -257 -29 -395 -35 -690 -34 -687 3 -1381 113
-2001 318 -258 85 -349 132 -492 253 -64 55 -183 201 -245 302 -163 266 -292
691 -351 1155 -24 191 -39 386 -29 396 13 13 409 221 658 346 1564 784 3225
1358 4934 1704 302 61 724 137 767 138 l31 1 6 -92z m10971 -1470 c152 -338
396 -987 383 -1021 -8 -21 -247 -178 -392 -256 -522 -284 -1299 -508 -2035
-586 -292 -31 -819 -29 -839 3 -3 6 -21 71 -39 145 l-33 135 118 114 c279 270
332 313 651 525 352 235 609 385 977 572 320 163 737 345 1033 452 35 12 71
32 80 45 9 13 19 24 22 24 3 0 36 -69 74 -152z m-17574 -743 c0 -2 -10 -9 -22
-15 -22 -11 -22 -10 -4 4 21 17 26 19 26 11z m-75 -43 c-6 -5 -140 -87 -300
-182 -828 -495 -1807 -1187 -2585 -1829 -96 -80 -169 -137 -161 -127 22 27
341 292 561 468 688 547 1453 1071 2245 1537 226 133 263 153 240 133z m18226
-897 c96 -372 111 -451 97 -524 -10 -60 -63 -111 -138 -134 -76 -23 -649 -113
-905 -141 -725 -81 -1475 -81 -2244 0 -88 9 -164 20 -169 23 -8 5 -22 93 -49
311 l-5 45 153 -8 c271 -15 709 15 1054 74 424 72 909 205 1275 350 245 97
557 260 750 392 l65 45 13 -42 c7 -22 53 -198 103 -391z m-3821 -132 c23 -84
80 -386 94 -498 8 -66 18 -176 21 -245 l7 -125 -72 -28 c-40 -15 -74 -27 -75
-25 -2 2 -24 106 -50 232 -25 126 -69 319 -96 429 -30 117 -47 203 -42 208 10
10 183 89 195 89 4 0 12 -17 18 -37z m-15390 -1696 c0 -584 7 -757 40 -953 33
-194 79 -282 171 -328 76 -38 166 -36 367 8 428 94 1452 207 2307 256 735 41
1810 41 2620 0 857 -44 2020 -159 2435 -241 261 -51 360 -42 431 39 75 85 104
191 158 586 37 267 52 333 66 295 2 -8 25 -108 50 -224 78 -357 123 -521 181
-658 39 -92 72 -139 123 -172 48 -32 229 -78 606 -155 1304 -264 2538 -659
3494 -1116 85 -41 157 -76 159 -79 3 -2 -9 -20 -26 -39 -38 -43 -40 -55 -46
-281 -9 -305 -41 -537 -156 -1150 -98 -519 -123 -676 -124 -782 -1 -89 0 -93
29 -123 78 -83 203 -79 261 9 19 29 29 74 54 241 27 186 59 370 135 775 23
124 65 356 65 363 0 1 17 0 38 -4 30 -4 48 0 92 25 229 127 346 172 518 202
240 40 437 12 649 -93 365 -181 622 -574 710 -1083 27 -158 24 -510 -6 -678
-85 -483 -314 -911 -684 -1279 -485 -483 -1139 -769 -1839 -805 -111 -5 -130
-4 -125 8 98 227 189 499 237 709 61 269 62 324 7 387 -39 44 -82 63 -142 63
-98 0 -124 -36 -155 -210 -61 -336 -177 -669 -352 -1012 l-81 -158 -49 87
c-127 227 -330 436 -638 655 -155 110 -663 458 -819 560 -237 156 -474 259
-711 309 -142 31 -440 34 -570 6 -455 -97 -856 -391 -1256 -922 -569 -754
-755 -1191 -757 -1785 -2 -379 74 -709 243 -1055 l59 -119 -78 -106 c-43 -58
-106 -147 -140 -198 -54 -81 -66 -93 -84 -87 -47 14 -220 17 -295 5 -246 -40
-465 -159 -720 -393 -56 -52 -79 -67 -105 -68 -17 -1 -41 -3 -52 -4 -11 -1
-69 -5 -130 -9 -60 -4 -137 -9 -170 -11 -80 -5 -291 -14 -500 -21 -93 -3 -315
-2 -493 2 l-322 7 -173 171 c-247 246 -424 363 -652 432 -82 25 -105 28 -252
28 l-162 1 -17 30 c-59 104 -275 416 -318 458 l-51 51 67 132 c348 680 453
1576 287 2431 -141 725 -554 1557 -988 1992 -271 271 -570 423 -861 438 -127
7 -233 -12 -358 -61 l-83 -34 6 32 c21 102 106 225 209 303 366 274 980 242
1205 -63 54 -74 75 -132 97 -266 22 -137 67 -209 163 -258 149 -75 349 17 392
182 24 89 -18 317 -92 493 -204 492 -855 763 -1507 629 -195 -40 -434 -146
-582 -258 -220 -166 -364 -372 -427 -614 -21 -81 -25 -122 -26 -252 l-2 -155
-141 4 c-160 4 -271 -8 -412 -45 -410 -106 -715 -380 -838 -754 -16 -47 -32
-88 -37 -91 -5 -4 -33 -9 -63 -13 -77 -9 -206 -52 -305 -102 -500 -250 -744
-853 -629 -1553 85 -517 315 -1032 677 -1516 21 -27 31 -45 23 -39 -350 257
-499 382 -736 619 -189 188 -335 355 -463 529 -432 586 -711 1249 -836 1985
-15 85 -33 164 -41 177 -39 59 -141 69 -214 20 -99 -65 -103 -113 -35 -452 54
-268 165 -629 280 -907 7 -17 3 -18 -46 -13 -30 3 -90 8 -134 12 -195 15 -469
80 -673 160 -660 260 -1169 773 -1406 1416 -51 139 -112 379 -138 548 -31 205
-31 570 0 740 97 528 361 898 785 1100 243 116 478 166 843 177 l191 6 12
-139 c43 -491 153 -1344 202 -1576 25 -115 181 -164 267 -85 60 55 66 100 37
276 -83 507 -150 1078 -190 1611 -20 263 -20 264 -61 310 l-36 39 14 43 c14
42 17 44 125 89 181 77 562 221 833 317 347 122 598 201 886 277 465 124 555
156 621 222 51 51 138 182 206 313 54 102 195 415 397 880 201 463 294 670
378 844 l87 179 8 -39 c4 -21 7 -295 7 -607z m1695 -4998 c161 -50 342 -164
485 -308 375 -376 759 -1139 895 -1781 138 -656 96 -1355 -120 -1957 -61 -170
-185 -421 -279 -563 -42 -63 -76 -120 -76 -126 0 -6 -24 -20 -53 -32 -78 -32
-258 -143 -367 -225 -104 -78 -110 -81 -370 -124 -133 -22 -519 -25 -655 -5
-450 68 -838 220 -1235 483 -203 136 -340 248 -526 434 -508 507 -830 1110
-940 1760 -26 153 -24 410 5 545 63 295 222 520 451 635 87 44 170 68 175 52
2 -7 6 -77 9 -157 19 -537 290 -1138 662 -1466 371 -328 706 -389 941 -170
234 217 221 576 -39 1089 -285 561 -644 899 -1087 1023 -46 13 -86 25 -88 27
-8 8 47 120 92 187 57 86 173 196 262 249 81 48 206 95 313 119 129 28 452 18
507 -16 9 -6 5 -38 -14 -127 -22 -106 -25 -143 -26 -320 0 -220 15 -335 73
-552 99 -370 325 -785 536 -982 170 -159 324 -198 480 -121 300 148 379 576
213 1157 -81 280 -198 515 -364 728 -79 101 -240 256 -327 315 -54 36 -67 50
-68 71 0 54 146 155 261 179 65 14 195 4 274 -21z m-595 -556 c309 -251 516
-675 561 -1151 14 -146 2 -267 -36 -349 -55 -121 -117 -95 -267 115 -164 229
-245 383 -322 616 -90 271 -115 580 -65 803 14 62 9 63 129 -34z m-1565 -675
c224 -73 455 -260 630 -508 120 -171 259 -442 323 -630 31 -91 35 -118 36
-206 1 -93 -1 -103 -26 -141 -39 -59 -98 -80 -181 -65 -182 34 -406 212 -565
449 -188 279 -319 673 -338 1014 l-7 121 34 -7 c18 -4 61 -16 94 -27z m10400
-143 c245 -40 439 -128 747 -337 75 -51 273 -185 440 -298 313 -212 449 -314
553 -416 177 -172 288 -358 352 -590 26 -92 28 -113 28 -284 0 -177 -1 -190
-33 -315 -76 -292 -198 -543 -449 -918 -229 -343 -381 -533 -558 -697 -241
-224 -533 -370 -894 -447 -119 -26 -141 -28 -381 -27 -239 0 -263 1 -382 27
-70 15 -135 27 -145 27 -10 0 -24 9 -31 21 -7 11 -34 30 -59 41 -53 23 -108
19 -159 -13 -38 -23 -55 -48 -77 -112 -19 -57 -88 -185 -149 -277 -31 -47 -49
-64 -63 -63 -11 1 -117 13 -235 27 -118 14 -305 32 -415 41 -306 24 -271 13
-358 109 l-76 84 84 136 c109 175 244 377 330 491 82 110 88 125 81 195 -7 59
-7 68 -5 134 2 36 -9 67 -64 177 -260 525 -285 1112 -68 1614 66 153 142 286
302 526 241 361 394 555 576 729 355 341 721 479 1108 415z m-12890 -1247
c142 -250 307 -492 473 -691 l65 -78 -59 -60 c-57 -58 -58 -58 -83 -42 -14 9
-76 45 -139 80 -63 35 -166 98 -230 140 -124 80 -372 262 -372 272 0 10 157
142 264 221 l98 74 -133 128 -134 127 76 1 76 0 98 -172z m-543 -656 c48 -39
97 -77 108 -85 20 -14 20 -14 -11 -102 -213 -606 -700 -1336 -1268 -1906 -274
-273 -468 -430 -725 -583 l-97 -58 -37 28 c-67 52 -546 537 -695 704 -140 158
-145 165 -123 175 13 6 88 73 168 150 566 550 1076 953 1690 1333 252 157 373
220 590 310 277 115 291 120 303 112 6 -4 49 -39 97 -78z m386 -280 c31 -21
98 -62 147 -92 50 -29 91 -54 93 -56 6 -4 -131 -411 -208 -615 -208 -552 -476
-1107 -783 -1624 -115 -193 -437 -679 -491 -741 -71 -83 -155 -96 -248 -40
-97 58 -437 321 -677 523 l-34 29 79 49 c454 283 861 674 1283 1235 342 454
599 901 748 1303 14 37 27 67 30 67 2 0 30 -17 61 -38z m6071 -1480 c102 -154
193 -301 276 -447 l98 -169 -102 -98 c-124 -119 -235 -208 -364 -295 -104 -69
-354 -203 -378 -203 -29 1 -297 403 -391 586 l-52 102 48 56 c167 195 476 405
711 482 102 34 125 32 154 -14z m868 -507 c158 -60 247 -129 563 -440 146
-143 306 -291 356 -328 l91 -68 -18 -77 c-21 -86 -122 -583 -199 -977 -28
-143 -61 -300 -73 -350 l-23 -90 -40 -7 c-21 -3 -95 -33 -164 -66 -586 -280
-1323 -280 -1755 -1 -251 162 -386 395 -486 839 -27 121 -33 166 -33 275 -1
139 7 179 49 230 l24 29 28 -26 c46 -43 87 -58 157 -58 94 0 195 36 414 145
364 182 640 393 909 695 129 145 152 199 118 283 -10 23 2 22 82 -8z m3333
-124 c-14 -26 -12 -91 3 -116 7 -12 32 -47 56 -78 24 -32 42 -59 40 -61 -2 -2
-121 4 -264 13 l-260 16 62 52 c79 66 182 127 275 164 89 35 103 36 88 10z
m-880 -534 c14 -3 106 -8 205 -11 99 -4 194 -9 210 -11 17 -2 86 -7 155 -10
124 -6 505 -31 610 -40 30 -2 93 -7 140 -10 47 -3 101 -8 120 -10 19 -2 71 -7
115 -10 44 -3 96 -7 115 -10 19 -2 76 -7 125 -10 674 -46 1050 -136 1327 -318
289 -190 504 -496 583 -830 31 -134 36 -178 36 -327 1 -177 -30 -341 -92 -498
-228 -577 -847 -941 -1600 -942 -429 0 -874 108 -1509 365 -509 206 -1078 459
-1416 628 -190 95 -529 279 -546 295 -3 4 4 50 18 102 35 141 97 442 149 730
76 421 179 887 200 908 14 15 182 19 585 16 245 -2 456 -5 470 -7z m-4515
-314 c-64 -159 -67 -376 -10 -658 47 -234 132 -476 217 -620 135 -229 331
-412 567 -530 208 -104 536 -175 811 -175 l75 0 64 -102 c89 -139 173 -252
238 -320 l56 -56 -129 -41 c-451 -141 -741 -191 -1104 -191 -914 0 -1570 474
-1701 1230 -49 282 1 597 134 854 150 289 388 502 703 630 49 19 92 36 96 36
4 0 -4 -26 -17 -57z m3319 -1953 c-5 -5 -38 -20 -72 -34 -64 -25 -64 -25 -49
-3 8 12 22 37 31 55 l17 32 40 -21 c23 -11 37 -24 33 -29z m544 -252 c61 -29
112 -55 112 -58 0 -4 -39 -8 -87 -9 -48 -1 -89 -4 -93 -6 -5 -3 -342 -8 -380
-6 -8 1 57 32 145 71 88 38 167 67 175 64 8 -3 66 -28 128 -56z"/>
<path d="M29270 15920 c-433 -79 -771 -324 -911 -659 -44 -105 -79 -250 -86
-356 -5 -79 -3 -96 17 -143 57 -133 215 -203 352 -156 102 34 170 127 188 256
23 162 55 232 146 319 329 314 1021 239 1234 -134 16 -28 39 -87 50 -131 21
-75 21 -87 10 -213 -10 -103 -10 -144 0 -181 37 -149 147 -232 290 -219 100 9
204 76 235 151 38 91 50 396 21 550 -64 337 -272 604 -604 774 -107 56 -261
110 -382 137 -121 27 -428 30 -560 5z"/>
<path d="M27799 14416 c-5 -5 -32 -7 -1139 -61 -1124 -55 -1290 -62 -1720 -75
-355 -11 -380 -13 -417 -37 -36 -23 -44 -67 -43 -238 3 -599 72 -999 226
-1324 268 -566 887 -923 1624 -936 273 -5 496 27 733 106 433 144 775 434 947
802 132 282 178 545 187 1087 6 391 -2 525 -39 598 -35 71 -65 82 -224 82 -72
0 -133 -2 -135 -4z m166 -236 c13 -20 19 -450 7 -450 -5 0 -34 -30 -62 -66
-152 -193 -377 -356 -539 -389 -86 -18 -329 -42 -526 -51 -82 -3 -152 -8 -155
-9 -29 -17 -1107 -26 -1340 -13 -113 7 -131 11 -197 42 -191 91 -342 266 -415
481 -24 70 -28 96 -28 203 l0 122 93 0 c50 1 117 3 147 4 30 2 163 7 295 11
132 3 263 8 290 10 28 2 122 7 210 10 88 4 187 8 220 10 33 2 123 7 200 10 77
3 169 7 205 10 62 4 133 8 385 20 61 3 139 8 175 10 113 8 779 39 932 43 65 2
98 0 103 -8z m-3217 -731 c10 -14 10 -18 -3 -23 -11 -4 -15 1 -15 21 0 14 1
24 3 22 1 -2 8 -11 15 -20z m2922 -359 c118 -39 219 -75 223 -79 22 -22 -95
-296 -178 -420 -268 -399 -748 -622 -1345 -626 -373 -2 -750 110 -1040 309
-90 61 -251 220 -301 296 -32 48 -37 63 -38 120 -3 163 81 304 224 378 44 22
59 25 125 21 205 -11 1230 0 1365 16 17 2 77 6 135 9 147 9 212 15 390 36 85
10 171 16 190 14 20 -2 132 -35 250 -74z"/>
<path d="M29682 11130 c-73 -45 -154 -223 -174 -385 -59 -465 354 -1035 977
-1347 137 -69 336 -137 475 -163 137 -26 340 -24 445 4 208 55 382 192 401
316 4 32 1 54 -14 86 -25 57 -51 79 -111 95 -73 19 -113 4 -192 -71 -91 -85
-159 -109 -314 -108 -174 1 -356 55 -573 168 -461 243 -776 639 -760 952 4 76
9 91 56 185 29 57 52 113 52 125 0 56 -49 124 -107 149 -47 20 -122 18 -161
-6z"/>
<path d="M26560 4576 c-6 -8 -10 -25 -8 -38 2 -18 10 -24 36 -26 26 -3 34 1
41 20 5 13 5 30 -1 41 -11 21 -51 22 -68 3z"/>
<path d="M26710 4558 c-14 -8 -26 -24 -28 -36 -3 -18 3 -26 28 -35 32 -12 32
-12 25 -67 -8 -64 6 -59 20 8 9 41 14 47 41 52 17 4 36 10 42 14 17 10 15 41
-3 56 -22 18 -96 23 -125 8z"/>
<path d="M26919 4546 c-16 -35 -5 -56 29 -56 35 0 55 20 50 52 -2 18 -10 24
-35 26 -27 3 -35 -1 -44 -22z"/>
</g>
</svg>
